# xmcd
#
# Track frame offsets:
# 150
# 11428
# 26935
# 37561
# 50941
# 59592
# 73744
# 85367
# 95042
# 104755
# 113883
# 120796
# 136208
# 157043
# 175869
# 186073
# 200138
# 212544
# 222345
# 232397
#
# Disc length: 3398 seconds
#
#
# Revision: 0
# Processed by: cddbd v1.4PL0 Copyright (c) Steve Scherf et al.
# Submitted via: FreeRIP 2.10 
#
DISCID=2e0d4414
DTITLE=John Hasbrouck - Ice Cream
DYEAR=2001
DGENRE=American Primitive
TTITLE0=The Assasination Of Cousin Brooks
TTITLE1=Keep It Clean
TTITLE2=I'm So Lonesome I Could Cry
TTITLE3=The Ravenous Wolf
TTITLE4=As Time Goes By
TTITLE5=Willy, The Chimmney Sweeper
TTITLE6=In Heaven Everything Is Fine
TTITLE7=All Those Wasted Years
TTITLE8=The House Of The Risin' Sun
TTITLE9=Lady Be Good
TTITLE10=Kerouac Alone In Des Moines
TTITLE11=Fragment Of An Unfinished Requiem For Blind Joe Death
TTITLE12=John Hardy
TTITLE13=I've Been Drinkin' All Night Long
TTITLE14=Requiem For A Fragment
TTITLE15=Cry Me A River
TTITLE16=Harry Smith Lays Down
TTITLE17=Lady Nothynge's Toye Puffe
TTITLE18=The Last Time I Saw Abraham
TTITLE19=Behold! Rows Of Zebras Miraculously Announce Nirvana
EXTD=
EXTT0=Wallace
EXTT1=p.d.
EXTT2=Williams
EXTT3=Hasbrouck
EXTT4=Hupfeld
EXTT5=Rodgers
EXTT6=(The Lady In The Radiator Song) Ivers, Lynch
EXTT7=Hasbrouck
EXTT8=p.d.
EXTT9=Gershwin
EXTT10=Hasbrouck
EXTT11=Hasbrouck
EXTT12=p.d.
EXTT13=Stephenson
EXTT14=Hasbrouck
EXTT15=Hamilton
EXTT16=Hasbrouck
EXTT17=Renbourn
EXTT18=Hasbrouck
EXTT19=Hasbrouck
PLAYORDER=
